<?xml version="1.0" standalone="no"?>
<!DOCTYPE svg PUBLIC "-//W3C//DTD SVG 20010904//EN"
 "http://www.w3.org/TR/2001/REC-SVG-20010904/DTD/svg10.dtd">
<svg version="1.0" xmlns="http://www.w3.org/2000/svg"
 width="1024.000000pt" height="1024.000000pt" viewBox="0 0 1024.000000 1024.000000"
 preserveAspectRatio="xMidYMid meet">

<g transform="translate(0.000000,1024.000000) scale(0.100000,-0.100000)"
fill="#ffffff" stroke="none">
<path d="M4604 6135 c-24 -58 -145 -383 -300 -810 -74 -203 -143 -394 -154
-423 -11 -30 -20 -58 -20 -63 0 -5 51 -9 113 -9 l112 0 48 125 48 125 215 0
215 0 59 -125 59 -125 125 0 125 0 -80 168 c-45 92 -128 271 -186 397 -237
518 -336 731 -348 755 l-14 25 -17 -40z m166 -826 c0 -5 -54 -9 -119 -9 l-119
0 44 118 c72 191 57 187 130 33 35 -73 64 -138 64 -142z"/>
<path d="M5784 6146 c-146 -34 -253 -96 -362 -210 -112 -118 -167 -247 -178
-421 -8 -119 12 -213 72 -334 110 -222 331 -361 579 -363 371 -3 625 269 625
670 l0 72 -320 0 -320 0 0 -115 0 -115 200 -2 200 -3 -30 -63 c-36 -77 -110
-151 -187 -188 -77 -37 -204 -45 -284 -19 -157 52 -275 195 -302 365 -29 190
72 379 251 467 73 37 79 38 181 38 93 0 114 -4 171 -28 36 -15 88 -45 117 -66
l52 -40 35 43 c19 23 50 58 70 78 20 20 36 40 36 45 0 14 -117 97 -185 131
-33 16 -85 37 -115 46 -77 23 -230 29 -306 12z"/>
<path d="M3140 4498 c0 -957 0 -961 51 -1060 48 -93 163 -187 282 -230 l62
-23 1800 3 c1276 1 1815 5 1850 13 167 38 320 198 344 364 5 33 8 456 8 940
l-2 880 -377 3 -377 2 -5 -57 c-9 -85 -44 -247 -73 -333 -31 -92 -117 -258
-186 -359 -29 -42 -101 -126 -162 -186 -212 -214 -433 -329 -755 -396 -138
-29 -418 -31 -555 -5 -194 37 -347 91 -489 173 -375 216 -622 580 -698 1032
l-23 131 -347 0 -348 0 0 -892z m535 -263 c0 -14 -8 -21 -26 -23 -15 -2 -35
-13 -45 -24 -19 -21 -19 -21 4 -9 49 26 101 -13 88 -65 -9 -35 -62 -59 -99
-45 -40 15 -61 69 -47 121 13 48 44 72 90 68 27 -2 35 -7 35 -23z m3205 5 c27
-27 25 -62 -6 -99 l-26 -31 26 0 c19 0 26 -5 26 -20 0 -18 -7 -20 -65 -20 -40
0 -65 4 -65 11 0 6 19 32 41 59 26 30 39 55 36 65 -8 19 -26 19 -33 0 -4 -8
-15 -15 -25 -15 -27 0 -24 35 3 54 31 22 64 20 88 -4z m183 -12 c17 -22 18
-31 8 -59 -18 -52 -59 -99 -87 -99 -30 0 -30 7 -2 37 l21 23 -21 0 c-42 0 -57
75 -21 111 28 28 76 22 102 -13z m-2027 -532 c28 -61 49 -114 47 -118 -9 -16
-53 -7 -63 12 -8 16 -21 20 -58 20 -36 0 -50 -5 -60 -20 -11 -18 -72 -30 -72
-14 0 4 19 47 41 98 23 50 50 111 61 136 l20 45 16 -24 c9 -13 39 -74 68 -135z
m514 125 c33 -24 36 -47 10 -61 -17 -9 -25 -8 -39 4 -24 22 -74 20 -95 -3 -26
-29 -24 -91 4 -113 25 -20 52 -23 81 -8 30 17 22 30 -17 30 -33 0 -35 2 -32
28 3 27 4 27 73 27 l70 0 3 -31 c2 -24 -6 -40 -36 -75 -38 -42 -42 -44 -97
-44 -54 0 -58 2 -96 42 -33 36 -39 49 -39 85 0 112 123 181 210 119z m208 -84
l3 -107 49 0 c49 0 50 -1 50 -30 l0 -30 -80 0 -80 0 0 134 c0 137 3 148 40
143 12 -2 16 -23 18 -110z m663 87 c42 -38 8 -73 -40 -42 -10 6 -27 8 -37 4
-18 -7 -18 -8 2 -24 12 -9 36 -25 53 -34 45 -25 58 -64 34 -108 -24 -46 -77
-61 -128 -37 -48 23 -62 51 -34 71 20 13 24 13 48 -5 28 -21 61 -17 61 6 0 7
-21 23 -46 35 -70 34 -82 83 -34 132 27 26 36 30 67 25 19 -4 44 -14 54 -23z
m-2666 -98 c73 -157 72 -154 33 -148 -18 3 -37 11 -41 18 -5 9 -26 14 -57 14
-40 0 -50 -4 -55 -20 -4 -14 -15 -20 -36 -20 -35 0 -36 5 -5 78 57 134 86 192
96 192 6 0 35 -51 65 -114z m255 64 c13 -27 26 -50 30 -50 4 0 17 23 30 50 17
36 29 50 44 50 21 0 27 -19 74 -237 4 -20 0 -23 -26 -23 -29 0 -30 3 -47 72
l-18 71 -15 -36 c-12 -31 -19 -37 -43 -37 -22 0 -32 7 -46 33 l-17 32 -11 -56
c-16 -80 -20 -86 -50 -86 -22 0 -26 3 -22 21 2 11 14 72 27 134 21 102 25 112
45 112 16 0 27 -12 45 -50z m408 34 c23 -16 31 -67 12 -79 -6 -4 -3 -16 10
-32 27 -35 26 -78 -5 -108 -21 -22 -33 -25 -95 -25 l-70 0 0 130 0 130 63 0
c40 0 70 -5 85 -16z m286 -10 c33 -34 34 -77 3 -108 l-24 -24 34 -46 c39 -54
41 -66 9 -66 -17 0 -38 16 -70 53 l-46 52 0 -53 c0 -52 -1 -53 -27 -50 l-28 3
-3 133 -3 132 64 0 c56 0 68 -3 91 -26z m1373 14 c10 -13 113 -244 113 -253 0
-3 -13 -5 -30 -5 -19 0 -33 7 -40 20 -8 16 -21 20 -60 20 -39 0 -52 -4 -60
-20 -12 -23 -60 -28 -60 -6 0 27 103 256 115 256 7 0 17 -6 22 -12z m631 -15
c-3 -26 -7 -28 -55 -31 -38 -2 -53 -7 -53 -18 0 -10 14 -14 56 -14 54 0 55 0
52 -27 -3 -26 -7 -28 -55 -31 -49 -3 -53 -5 -53 -28 0 -23 3 -24 55 -24 l55 0
0 -35 0 -36 -87 3 -88 3 -3 133 -3 132 91 0 91 0 -3 -27z m251 10 c12 -10 24
-34 27 -54 5 -29 2 -41 -16 -59 l-22 -22 37 -51 36 -52 -33 -3 c-27 -3 -37 3
-67 39 l-36 43 -5 -44 c-5 -46 -5 -45 -55 -41 -12 1 -15 23 -15 131 l0 130 64
0 c46 0 70 -5 85 -17z"/>
<path d="M3604 4139 c-10 -17 13 -36 27 -22 12 12 4 33 -11 33 -5 0 -12 -5
-16 -11z"/>
<path d="M6984 4199 c-3 -6 0 -17 7 -25 18 -17 44 -2 36 20 -7 18 -33 21 -43
5z"/>
<path d="M4942 3696 c-12 -27 -7 -36 20 -36 15 0 18 5 13 23 -11 35 -21 39
-33 13z"/>
<path d="M3680 3701 c-14 -27 -9 -34 18 -29 19 3 19 5 8 27 l-13 24 -13 -22z"/>
<path d="M4330 3771 c0 -16 6 -21 26 -21 33 0 30 33 -4 38 -17 3 -22 -2 -22
-17z"/>
<path d="M4330 3659 c0 -27 3 -30 26 -27 34 4 56 34 34 48 -8 5 -25 10 -37 10
-19 0 -23 -5 -23 -31z"/>
<path d="M4610 3760 c0 -15 7 -20 25 -20 18 0 25 5 25 20 0 15 -7 20 -25 20
-18 0 -25 -5 -25 -20z"/>
<path d="M6046 3698 c-9 -35 -8 -38 15 -38 16 0 19 4 14 23 -11 35 -22 41 -29
15z"/>
<path d="M6880 3763 c0 -18 5 -24 17 -21 26 5 28 34 3 41 -16 4 -20 0 -20 -20z"/>
<path d="M3481 2070 c-75 -16 -169 -66 -219 -118 -159 -164 -158 -420 3 -577
127 -124 312 -154 474 -78 73 35 169 131 207 208 26 54 29 70 28 155 -1 148
-52 253 -163 334 -89 66 -227 97 -330 76z"/>
<path d="M7024 2065 c-133 -28 -240 -112 -297 -233 -30 -62 -32 -75 -32 -172
0 -95 3 -111 28 -162 43 -88 107 -152 195 -195 68 -34 85 -38 167 -41 147 -6
236 30 333 132 29 31 65 82 80 113 24 51 27 70 27 158 0 93 -2 105 -33 168
-41 84 -117 161 -196 198 -54 26 -79 32 -181 43 -16 2 -57 -2 -91 -9z"/>
</g>
</svg>
